<svg xmlns="http://www.w3.org/2000/svg" width="141.75" viewBox="0 0 141.75 84.75" height="84.75" version="1.0"><defs><clipPath id="a"><path d="M 0.0820312 0 L 141.417969 0 L 141.417969 84.5 L 0.0820312 84.5 Z M 0.0820312 0"/></clipPath><clipPath id="b"><path d="M 114.785156 40.078125 L 119.046875 40.078125 L 119.046875 55.03125 L 114.785156 55.03125 Z M 114.785156 40.078125"/></clipPath><clipPath id="c"><path d="M 24.785156 19.792969 L 105.84375 19.792969 L 105.84375 71.480469 L 24.785156 71.480469 Z M 24.785156 19.792969"/></clipPath></defs><g clip-path="url(#a)" fill="#FFF"><path d="M 0.0820312 0 L 141.667969 0 L 141.667969 92.140625 L 0.0820312 92.140625 Z M 0.0820312 0"/><path d="M 0.0820312 0 L 141.667969 0 L 141.667969 84.648438 L 0.0820312 84.648438 Z M 0.0820312 0"/><path d="M 0.0820312 0 L 141.667969 0 L 141.667969 84.648438 L 0.0820312 84.648438 Z M 0.0820312 0"/></g><path fill="#FFBD59" d="M 50.605469 29.652344 C 49.753906 31.664062 50.839844 34.15625 52.808594 34.433594 C 52.378906 32.535156 51.992188 30.59375 50.605469 29.652344 Z M 50.808594 28.949219 C 50.851562 28.941406 50.855469 28.96875 50.859375 29 C 51.039062 29.234375 51.207031 29.457031 51.40625 29.703125 C 52.007812 30.4375 52.445312 31.277344 52.761719 32.421875 C 52.957031 33.132812 53.28125 33.96875 53.109375 34.734375 C 52.5625 34.941406 51.855469 34.71875 51.40625 34.433594 C 50.757812 34.019531 49.816406 32.371094 49.804688 31.113281 C 49.800781 30.335938 50.046875 29.167969 50.808594 28.949219" fill-rule="evenodd"/><path fill="#FFBD59" d="M 58.96875 30.15625 C 56.929688 30.488281 55.976562 32.617188 55.714844 34.734375 C 57.476562 33.890625 58.765625 32.566406 58.96875 30.15625 Z M 59.269531 29.652344 C 59.554688 30.398438 59.207031 31.261719 58.96875 31.917969 C 58.5 33.207031 57.804688 34.039062 56.667969 34.683594 C 56.203125 34.949219 55.691406 35.3125 55.164062 35.339844 C 55.425781 32.53125 56.390625 29.996094 59.269531 29.652344" fill-rule="evenodd"/><path fill="#FFBD59" d="M 106.34375 36.195312 C 106.316406 35.867188 106.152344 35.246094 105.640625 35.238281 C 105.421875 35.792969 106.15625 36.230469 106.34375 36.195312 Z M 105.492188 34.785156 C 106.171875 34.511719 106.800781 35.304688 106.894531 35.941406 C 106.984375 36.570312 106.765625 37.023438 106.390625 37 C 106.136719 36.980469 106.292969 36.894531 106.042969 36.648438 C 105.769531 36.378906 105.234375 36.148438 105.140625 35.792969 C 105.019531 35.324219 105.167969 34.917969 105.492188 34.785156" fill-rule="evenodd"/><path fill="#FFBD59" d="M 112.75 35.941406 C 112.757812 36.675781 113.695312 36.472656 113.804688 37.101562 C 113.992188 36.402344 113.445312 35.597656 112.75 35.941406 Z M 113.554688 37.703125 C 113.386719 37.550781 113.382812 37.238281 113.253906 37.050781 C 112.808594 36.800781 112.0625 36.664062 112.25 35.894531 C 112.507812 34.828125 114.136719 35.367188 114.355469 36.394531 C 114.46875 36.929688 114.472656 37.691406 113.554688 37.703125" fill-rule="evenodd"/><path fill="#FFBD59" d="M 53.210938 35.84375 C 52.910156 35.890625 52.828125 35.722656 52.558594 35.742188 C 52.511719 35.777344 52.484375 35.832031 52.460938 35.894531 C 52.472656 36.148438 52.789062 36.097656 52.960938 36.195312 C 53.003906 36.457031 52.734375 36.40625 52.609375 36.496094 C 52.746094 36.695312 53.113281 36.660156 53.109375 37 C 52.6875 37.132812 52.351562 36.761719 52.160156 36.496094 C 52.359375 36.179688 51.964844 35.933594 52.210938 35.539062 C 52.472656 35.3125 53.265625 35.3125 53.210938 35.84375" fill-rule="evenodd"/><path fill="#FFBD59" d="M 107.144531 39.617188 C 106.714844 40.6875 106.964844 42.484375 106.894531 43.894531 C 106.769531 46.332031 106.546875 48.917969 106.089844 50.835938 C 105.835938 51.910156 105.417969 52.917969 105.339844 53.957031 C 105.304688 54.429688 105.28125 55.746094 105.839844 55.867188 C 106.46875 56.003906 106.945312 55.160156 107.195312 54.558594 C 108.539062 51.277344 108.992188 47.355469 109.144531 42.9375 C 109.203125 41.3125 108.9375 39.054688 108.042969 38.507812 C 107.75 38.792969 107.324219 39.160156 107.144531 39.617188 Z M 107.84375 38.007812 C 108.9375 37.648438 109.542969 39.984375 109.648438 40.824219 C 109.902344 42.859375 109.492188 45.320312 109.347656 47.214844 C 109.226562 48.761719 108.949219 50.472656 108.59375 51.894531 C 108.25 53.296875 107.820312 55.054688 107.144531 55.820312 C 106.082031 57.011719 104.804688 56.253906 104.789062 54.410156 C 104.789062 54.269531 104.808594 54 104.839844 53.753906 C 105.089844 51.746094 105.972656 49.660156 106.191406 47.011719 C 106.296875 45.746094 106.339844 44.441406 106.390625 43.1875 C 106.496094 40.710938 106.230469 38.976562 107.746094 38.054688 C 107.746094 38.007812 107.804688 38.015625 107.84375 38.007812" fill-rule="evenodd"/><path fill="#FFBD59" d="M 112.902344 52.496094 C 114.101562 49.324219 114.578125 43.71875 113.601562 40.167969 C 113.496094 39.78125 113.058594 38.753906 112.652344 39.164062 C 112.273438 39.5625 112.433594 40.753906 112.402344 41.628906 C 112.378906 42.265625 112.238281 42.945312 112.25 43.339844 C 112.261719 43.667969 112.367188 43.996094 112.351562 44.246094 C 112.207031 46.703125 111.527344 49.59375 111 51.84375 C 110.695312 53.140625 110.308594 54.492188 111 55.265625 C 112.050781 54.957031 112.457031 53.667969 112.902344 52.496094 Z M 112.703125 38.558594 C 113.996094 38.277344 114.355469 40.886719 114.503906 42.082031 C 114.789062 44.367188 114.5625 46.785156 114.304688 49.074219 C 114.148438 50.472656 113.75 52.042969 113.300781 53.101562 C 112.90625 54.035156 112.101562 55.902344 111.050781 55.820312 C 110.386719 55.765625 110.082031 54.804688 110.148438 53.804688 C 110.253906 52.199219 110.730469 50.765625 111.050781 49.074219 C 111.546875 46.429688 111.851562 44.484375 111.851562 41.429688 C 111.851562 40.09375 111.726562 38.769531 112.703125 38.558594" fill-rule="evenodd"/><path fill="#FFBD59" d="M 107.792969 39.96875 C 107.875 39.953125 107.878906 40.015625 107.945312 40.019531 C 108.402344 44.921875 107.605469 49.894531 106.542969 53.554688 C 106.445312 53.894531 106.492188 54.476562 106.042969 54.558594 C 105.835938 54.171875 106.070312 53.570312 106.242188 53.050781 C 107.039062 50.613281 107.445312 47.589844 107.59375 44.394531 C 107.660156 43.003906 107.707031 41.492188 107.746094 40.121094 C 107.730469 40.039062 107.792969 40.03125 107.792969 39.96875" fill-rule="evenodd"/><g clip-path="url(#b)"><path fill="#FFBD59" d="M 116.808594 42.835938 C 116.648438 45.75 116.589844 49.34375 115.804688 51.894531 C 115.691406 52.265625 115.425781 53.054688 115.40625 53.152344 C 115.308594 53.652344 115.347656 54.316406 115.757812 54.410156 C 116.332031 54.542969 116.730469 53.808594 117.007812 53.300781 C 118.320312 50.914062 118.816406 47.335938 118.359375 43.691406 C 118.242188 42.75 117.976562 40.773438 117.308594 40.621094 C 117.007812 41.1875 116.855469 42.007812 116.808594 42.835938 Z M 117.109375 40.121094 C 118.222656 39.84375 118.421875 41.214844 118.660156 42.382812 C 119.269531 45.359375 119.171875 49.429688 118.261719 52.042969 C 117.910156 53.050781 117.046875 55.019531 115.90625 55.011719 C 115.019531 55.007812 114.613281 53.902344 114.855469 52.851562 C 114.933594 52.507812 115.246094 52.210938 115.355469 51.945312 C 115.828125 50.792969 116.015625 48.867188 116.105469 47.367188 C 116.214844 45.539062 116.199219 43.898438 116.308594 42.28125 C 116.363281 41.46875 116.632812 40.464844 117.007812 40.167969 C 117.011719 40.121094 117.070312 40.128906 117.109375 40.121094" fill-rule="evenodd"/></g><path fill="#FFBD59" d="M 112.851562 41.378906 C 112.886719 41.378906 112.917969 41.378906 112.953125 41.378906 C 113.265625 41.765625 113.230469 42.371094 113.253906 42.886719 C 113.320312 44.519531 113.324219 46.375 113.050781 47.867188 C 112.78125 49.363281 112.464844 50.785156 112 52.144531 C 111.871094 52.527344 111.804688 53.132812 111.351562 53.253906 C 111.632812 51.734375 112.1875 50.222656 112.550781 48.523438 C 113 46.425781 112.917969 43.980469 112.851562 41.527344 C 112.851562 41.476562 112.851562 41.425781 112.851562 41.378906" fill-rule="evenodd"/><path fill="#FFBD59" d="M 117.359375 43.136719 C 117.441406 43.125 117.445312 43.1875 117.507812 43.1875 C 118.011719 46.46875 117.867188 50.984375 116.308594 52.800781 C 116.597656 51.398438 117.097656 50.078125 117.257812 48.472656 C 117.417969 46.867188 117.335938 45.128906 117.308594 43.289062 C 117.335938 43.25 117.359375 43.207031 117.359375 43.136719" fill-rule="evenodd"/><path fill="#FFBD59" d="M 111.550781 58.234375 C 111.609375 58.308594 111.738281 58.3125 111.800781 58.382812 C 112.261719 58.191406 112.695312 57.714844 112.601562 57.125 C 111.972656 57.214844 111.59375 57.554688 111.550781 58.234375 Z M 111.050781 58.382812 C 111.019531 57.527344 111.183594 57.5 111.699219 57.078125 C 111.957031 56.867188 112.652344 56.285156 113.050781 56.824219 C 113.738281 57.753906 111.691406 59.84375 111.050781 58.382812" fill-rule="evenodd"/><path fill="#FFBD59" d="M 104.039062 59.492188 C 104.464844 59.433594 104.703125 58.921875 104.691406 58.585938 C 104.359375 58.746094 103.933594 59.058594 104.039062 59.492188 Z M 105.289062 58.183594 C 105.324219 58.988281 104.824219 60.292969 103.839844 59.996094 C 102.730469 59.660156 104.382812 57.183594 105.289062 58.183594" fill-rule="evenodd"/><g clip-path="url(#c)"><path fill="#FFBD59" d="M 85.761719 55.769531 C 83.984375 55.613281 82.210938 55.464844 80.453125 55.316406 C 78.671875 55.160156 76.914062 54.824219 75.195312 54.761719 C 75.03125 54.753906 74.910156 54.96875 74.742188 55.0625 C 74.902344 56.519531 75.632812 57.625 76.347656 58.6875 C 77.300781 60.109375 78.398438 61.449219 79.550781 62.5625 C 81.265625 64.210938 82.917969 65.363281 85.058594 66.535156 C 89.972656 69.230469 96.125 71.609375 103.335938 70.511719 C 100.707031 66.175781 98.097656 61.820312 96.175781 56.773438 C 92.714844 56.992188 89.246094 56.070312 85.761719 55.769531 Z M 98.980469 48.320312 C 99.050781 50.507812 98.722656 52.15625 98.480469 54.109375 C 98.273438 55.757812 98.070312 57.53125 97.480469 58.535156 C 97.601562 58.78125 97.699219 59.050781 97.777344 59.339844 C 98.699219 58.671875 99.816406 57.765625 100.785156 56.976562 C 101.105469 54.128906 101.179688 51.03125 101.585938 48.269531 C 100.699219 48.3125 99.878906 48.417969 98.980469 48.320312 Z M 92.519531 47.265625 C 93.484375 47.625 95.238281 47.671875 96.777344 47.765625 C 99.261719 47.921875 101.671875 47.933594 103.539062 47.414062 C 104.238281 47.222656 104.980469 46.960938 105.242188 46.507812 C 101.269531 45.617188 96.136719 45.777344 91.769531 45.152344 C 90.667969 45.851562 91.722656 46.964844 92.519531 47.265625 Z M 46.902344 44.949219 C 46.988281 45.171875 47.148438 45.570312 46.851562 45.753906 C 46.035156 45.769531 45.351562 45.214844 44.949219 44.648438 C 44.050781 45.355469 43.371094 46.28125 42.445312 46.960938 C 43.074219 47.6875 43.691406 48.425781 44.449219 49.027344 C 44.957031 47.339844 47.449219 47.648438 49.554688 47.566406 C 49.992188 46.410156 50.375 45.203125 50.707031 43.945312 C 48.539062 43.824219 46.605469 43.199219 45.097656 42.585938 C 45.632812 43.222656 46.578125 44.109375 46.902344 44.949219 Z M 37.1875 47.363281 C 36.84375 47.625 36.578125 47.960938 36.636719 48.625 C 37.40625 49.429688 38.890625 49.355469 40.242188 49.476562 C 41.617188 49.601562 43.082031 49.800781 44.347656 49.730469 C 44.0625 49.023438 43.304688 48.710938 42.84375 48.171875 C 42.515625 47.785156 42.25 47.429688 41.894531 47.113281 C 42.253906 46.835938 42.6875 46.636719 42.796875 46.105469 C 43.589844 45.546875 44.078125 44.679688 44.949219 44.195312 C 45.421875 44.625 45.84375 45.105469 46.550781 45.300781 C 46.117188 44.320312 45.335938 43.355469 44.597656 42.6875 C 44.34375 42.457031 44.023438 42.078125 43.796875 42.132812 C 43.917969 42.816406 44.398438 43.136719 44.597656 43.742188 C 43.742188 44.894531 42.53125 45.691406 41.492188 46.660156 C 40.699219 45.007812 38.191406 45.988281 37.539062 47.113281 C 38.175781 47.59375 38.828125 48.0625 39.441406 48.574219 C 38.636719 48.222656 37.890625 47.816406 37.1875 47.363281 Z M 42.644531 42.183594 C 42.535156 42.039062 42.667969 41.65625 42.542969 41.527344 C 42.484375 41.703125 42.417969 42.144531 42.644531 42.183594 Z M 43.347656 42.183594 C 43.402344 41.730469 43.292969 41.257812 43.546875 40.925781 C 42.953125 40.863281 42.761719 42.089844 43.347656 42.183594 Z M 44.949219 40.371094 C 44.910156 40.382812 44.890625 40.414062 44.898438 40.472656 C 45.707031 40.546875 46.101562 41.042969 46.449219 41.578125 C 47.949219 41.644531 49.488281 42.066406 50.957031 42.03125 C 51.167969 42.027344 51.355469 41.917969 51.558594 41.929688 C 52.144531 41.960938 52.867188 42.082031 53.5625 42.132812 C 53.917969 42.15625 54.273438 42.175781 54.613281 42.183594 C 54.851562 42.1875 55.304688 42.105469 55.414062 42.382812 C 55.257812 42.652344 54.992188 42.660156 54.761719 42.6875 C 53.78125 42.800781 52.464844 42.632812 51.257812 42.585938 C 49.429688 42.511719 47.867188 42.261719 46.351562 42.082031 C 46.015625 41.363281 44.390625 40.246094 43.847656 41.527344 C 44.042969 41.71875 44.320312 41.824219 44.496094 42.03125 C 45.285156 41.886719 45.679688 42.261719 46.351562 42.535156 C 48.011719 43.207031 50.5625 43.484375 52.511719 43.691406 C 52.953125 43.738281 53.542969 43.699219 53.863281 44.09375 C 53.183594 44.40625 51.933594 44.078125 51.15625 43.992188 C 50.882812 45.246094 50.441406 46.328125 50.105469 47.515625 C 51.941406 47.601562 53.683594 47.777344 55.566406 47.816406 C 55.566406 46.148438 56.128906 44.089844 56.164062 42.484375 C 56.171875 42.257812 56.058594 42.039062 56.117188 41.828125 C 56.1875 41.5625 56.617188 41.460938 56.617188 41.175781 C 55.246094 40.875 53.1875 40.789062 51.707031 40.925781 C 51.601562 41.046875 51.65625 41.382812 51.609375 41.425781 C 50.214844 41.484375 48.082031 41.382812 46.402344 41.277344 C 46.183594 40.738281 45.699219 40.207031 44.949219 40.371094 Z M 42.84375 40.875 C 42.855469 40.699219 42.996094 40.65625 43.144531 40.621094 C 43.144531 40.488281 43.164062 40.335938 43.09375 40.269531 C 43.046875 40.269531 42.996094 40.269531 42.945312 40.269531 C 42.898438 40.425781 42.679688 40.671875 42.84375 40.875 Z M 43.597656 40.019531 C 43.542969 40.152344 43.535156 40.328125 43.546875 40.523438 C 43.878906 40.625 44.09375 40.609375 44.398438 40.472656 C 44.425781 40.023438 43.953125 39.929688 43.597656 40.019531 Z M 58.117188 39.414062 C 57.6875 39.738281 57.875 40.335938 57.667969 40.773438 C 57.59375 40.929688 57.253906 40.996094 57.117188 41.226562 C 57.035156 41.363281 57.09375 41.535156 57.015625 41.628906 C 56.871094 41.808594 56.617188 41.820312 56.515625 41.980469 C 56.574219 43.785156 56.003906 45.78125 55.964844 47.816406 C 56.324219 47.71875 56.792969 47.875 57.265625 47.816406 C 57.71875 45.859375 58.132812 43.855469 58.46875 41.78125 C 60.316406 41.746094 59.996094 38.675781 58.117188 39.414062 Z M 99.132812 45.25 C 99.957031 45.277344 100.683594 45.402344 101.484375 45.453125 C 101.53125 43.5625 101.792969 41.308594 101.886719 39.414062 C 101.929688 38.546875 102.070312 37.117188 101.734375 36.394531 C 101.640625 36.195312 101.277344 35.886719 101.035156 35.640625 C 100.28125 34.886719 99.480469 33.925781 98.929688 33.226562 C 99.464844 36.71875 99.339844 41.648438 99.132812 45.25 Z M 71.390625 35.992188 C 70.988281 38.09375 70.542969 39.980469 70.136719 41.980469 C 69.929688 43.003906 69.792969 44.046875 69.386719 44.847656 C 68.867188 45.863281 67.113281 47.6875 66.082031 48.070312 C 65.402344 48.320312 64.3125 48.351562 63.328125 48.421875 C 62.402344 48.488281 61.414062 48.433594 60.472656 48.421875 C 58.566406 48.402344 56.664062 48.425781 54.613281 48.320312 C 52.824219 48.230469 51.046875 48 49.054688 48.070312 C 48.179688 48.101562 47.226562 48.039062 46.25 48.21875 C 45.574219 48.347656 44.472656 49.152344 44.898438 49.679688 C 45.171875 50.019531 46.964844 49.878906 47.851562 49.929688 C 48.910156 49.992188 50.0625 49.992188 50.90625 50.03125 C 53.125 50.136719 55.167969 50.183594 57.21875 50.183594 C 61.410156 50.183594 66.097656 50.574219 69.136719 49.378906 C 70.546875 48.824219 71.550781 47.597656 72.089844 46.207031 C 73.417969 42.796875 73.503906 36.125 72.289062 32.472656 C 72.289062 32.441406 72.28125 32.410156 72.238281 32.421875 C 71.714844 33.269531 71.632812 34.714844 71.390625 35.992188 Z M 85.160156 31.214844 C 85.167969 31.273438 85.152344 31.355469 85.210938 31.363281 C 86.449219 34.695312 86.386719 39.335938 86.011719 43.441406 C 85.640625 47.496094 85.070312 51.667969 84.308594 55.164062 C 88.421875 55.425781 92.246094 56.460938 96.425781 56.320312 C 96.828125 56.722656 96.949219 57.410156 97.277344 57.882812 C 97.984375 54.984375 98.402344 51.796875 98.53125 48.320312 C 96.558594 48.050781 94.144531 48.324219 92.421875 47.71875 C 91.703125 47.464844 90.742188 46.746094 90.769531 45.90625 C 90.808594 44.59375 92.046875 44.828125 93.324219 44.898438 C 94.992188 44.996094 96.964844 45.136719 98.582031 45.203125 C 98.828125 41.15625 99.15625 35.574219 98.078125 32.21875 C 94.101562 31.554688 89.476562 31.535156 85.160156 31.214844 Z M 79.953125 34.03125 C 80.175781 37.449219 79.675781 40.894531 79.402344 44.445312 C 79.128906 47.988281 78.824219 51.472656 78.449219 54.609375 C 80.25 54.796875 82.03125 55.003906 83.90625 55.113281 C 84.765625 51.601562 85.128906 47.429688 85.609375 43.339844 C 86.089844 39.257812 86.011719 34.460938 84.757812 31.214844 C 82.851562 31.101562 80.953125 30.976562 79.050781 30.859375 C 79.59375 31.726562 79.875 32.855469 79.953125 34.03125 Z M 66.332031 30.40625 C 65.371094 31.097656 65.257812 33.242188 65.128906 34.886719 C 64.800781 39.089844 64.777344 44.179688 64.226562 47.765625 C 65.796875 48.011719 66.40625 47.339844 67.082031 46.660156 C 67.734375 46.007812 68.660156 45.375 68.984375 44.546875 C 69.601562 42.984375 69.96875 40.847656 70.335938 38.8125 C 70.511719 37.855469 70.761719 36.828125 70.9375 35.84375 C 71.234375 34.207031 71.339844 32.722656 72.089844 31.816406 C 71.941406 31.464844 71.785156 31.117188 71.640625 30.761719 C 69.863281 30.847656 68.046875 30.546875 66.332031 30.40625 Z M 74.242188 30.003906 C 73.875 29.398438 73.402344 28.421875 72.742188 28.292969 C 72.285156 28.207031 71.941406 29.886719 72.089844 30.710938 C 72.140625 31.003906 72.371094 31.40625 72.492188 31.714844 C 72.902344 32.785156 73.25 33.761719 73.390625 35.085938 C 74.003906 40.863281 73.722656 47.445312 69.785156 49.578125 C 67.769531 50.671875 64.789062 50.667969 61.875 50.785156 C 60.355469 50.847656 58.945312 50.6875 57.417969 50.6875 C 52.789062 50.6875 48.875 50.382812 44.199219 50.285156 C 42.984375 50.257812 41.460938 50.074219 39.992188 49.929688 C 38.226562 49.761719 36.089844 49.871094 36.035156 48.21875 C 34.796875 47.742188 34.535156 48.878906 33.980469 49.027344 C 33.199219 49.234375 32.382812 48.992188 31.777344 49.027344 C 29.78125 49.132812 28.039062 49.953125 26.972656 50.988281 C 26.003906 51.921875 24.640625 54.371094 25.96875 55.820312 C 26.972656 56.910156 29.363281 57.121094 31.378906 57.328125 C 33.511719 57.546875 35.835938 57.6875 37.835938 57.78125 C 46.621094 58.191406 55.601562 58.761719 63.878906 59.390625 C 68.222656 59.722656 72.789062 59.890625 76.796875 60.347656 C 76.503906 59.632812 75.65625 58.824219 75.09375 57.832031 C 74.808594 57.328125 74.117188 55.742188 74.191406 55.113281 C 74.367188 53.648438 76.765625 54.582031 78.050781 54.558594 C 78.382812 51.488281 78.8125 48.050781 79.050781 44.546875 C 79.289062 41.007812 79.820312 37.441406 79.601562 34.132812 C 79.511719 32.78125 79.179688 31.695312 78.648438 30.8125 C 77.316406 30.792969 76.214844 30.542969 74.945312 30.457031 C 75.074219 30.964844 75.328125 31.617188 75.34375 32.070312 C 75.058594 31.429688 74.707031 30.773438 74.242188 30.003906 Z M 55.0625 38.609375 C 56.335938 37.152344 58.300781 35.722656 59.269531 33.777344 C 60.214844 31.886719 59.957031 28.714844 58.769531 27.289062 C 58.296875 26.71875 57.238281 25.988281 56.316406 25.878906 C 55.609375 25.796875 54.335938 25.828125 53.613281 25.929688 C 53.097656 26.003906 52.230469 26.582031 51.859375 26.886719 C 51.089844 27.519531 50.371094 28.605469 50.007812 29.453125 C 49.660156 30.261719 49.476562 31.703125 49.65625 32.722656 C 49.886719 34.03125 50.488281 35.726562 51.109375 36.648438 C 51.871094 37.773438 52.867188 38.660156 53.761719 39.414062 C 53.960938 39.582031 54.109375 39.21875 54.210938 39.3125 C 54.324219 39.828125 54.007812 39.914062 54.0625 40.371094 C 54.246094 40.453125 54.535156 40.433594 54.761719 40.472656 C 55.011719 39.773438 54.777344 39.195312 55.0625 38.609375 Z M 96.777344 24.019531 C 94.148438 24.507812 91.683594 25.847656 89.96875 27.339844 C 88.945312 28.226562 87.898438 29.449219 87.511719 30.8125 C 90.601562 30.960938 93.902344 31.167969 96.726562 31.414062 C 96.984375 28.738281 97.71875 26.542969 98.078125 23.96875 C 97.65625 23.96875 97.089844 23.960938 96.777344 24.019531 Z M 68.285156 26.332031 C 67.121094 25.164062 65.800781 23.960938 64.277344 23.164062 C 61.167969 21.527344 57.53125 20.085938 52.660156 20.445312 C 52.597656 20.449219 52.585938 20.484375 52.511719 20.496094 C 49.550781 20.914062 47.082031 20.964844 44.898438 21.902344 C 40.289062 23.890625 36.597656 26.785156 34.433594 31.214844 C 33.878906 32.34375 33.429688 33.484375 33.332031 34.734375 C 33.125 37.371094 33.492188 39.558594 34.230469 41.730469 C 34.90625 43.707031 35.621094 45.707031 37.285156 46.8125 C 37.882812 45.453125 40.476562 44.65625 41.644531 46.007812 C 42.515625 45.292969 43.375 44.558594 44.148438 43.742188 C 43.898438 43.351562 43.6875 42.929688 43.394531 42.585938 C 42.972656 42.484375 42.886719 42.539062 42.445312 42.585938 C 41.917969 42.351562 42.050781 41.34375 42.445312 41.074219 C 42.179688 40.6875 42.457031 40.074219 42.746094 39.917969 C 43.167969 40.015625 43.429688 39.5625 43.847656 39.566406 C 44.207031 39.570312 44.347656 39.792969 44.648438 40.019531 C 45.496094 39.582031 46.410156 40.261719 46.75 40.824219 C 48.007812 40.96875 49.914062 40.855469 51.207031 41.125 C 50.996094 39.976562 52.898438 40.511719 53.710938 40.371094 C 53.777344 39.75 53.347656 39.785156 53.011719 39.515625 C 52.351562 38.992188 51.632812 38.113281 51.007812 37.300781 C 50.382812 36.488281 49.925781 35.5 49.605469 34.484375 C 49.234375 33.308594 48.917969 31.847656 49.203125 30.40625 C 49.386719 29.5 49.859375 28.761719 50.257812 28.09375 C 50.902344 27.007812 52.144531 25.613281 53.660156 25.425781 C 54.128906 25.367188 54.652344 25.492188 55.113281 25.476562 C 55.460938 25.464844 55.777344 25.363281 56.066406 25.375 C 57.238281 25.421875 58.46875 26.199219 59.070312 26.886719 C 60.117188 28.082031 60.480469 29.957031 60.273438 32.117188 C 60.109375 33.789062 59.097656 35.074219 58.21875 36.042969 C 57.808594 36.496094 57.273438 36.980469 56.765625 37.554688 C 56.457031 37.90625 55.441406 38.734375 55.3125 39.113281 C 55.210938 39.414062 55.449219 40.171875 55.164062 40.523438 C 55.695312 40.386719 56.589844 40.945312 57.015625 40.773438 C 57.386719 40.625 57.378906 39.703125 57.566406 39.414062 C 58.183594 38.460938 59.738281 38.945312 60.070312 39.816406 C 60.476562 40.875 59.957031 41.886719 58.820312 42.132812 C 58.601562 44.175781 58.136719 45.976562 57.71875 47.816406 C 59.648438 47.847656 62.054688 48.195312 63.726562 47.71875 C 64.351562 44.097656 64.265625 38.796875 64.679688 34.632812 C 64.816406 33.222656 64.925781 31.636719 65.429688 30.710938 C 66.027344 29.609375 67.015625 29.980469 68.484375 30.15625 C 69.542969 30.28125 70.609375 30.191406 71.4375 30.359375 C 70.617188 28.867188 69.488281 27.542969 68.285156 26.332031 Z M 71.488281 29.300781 C 71.714844 28.546875 71.996094 27.679688 72.742188 27.640625 C 73.808594 27.585938 74.230469 29.074219 74.792969 29.703125 C 78.566406 30.257812 82.765625 30.382812 86.863281 30.609375 C 87.707031 28.140625 89.683594 26.582031 91.96875 25.175781 C 93.261719 24.378906 94.753906 23.703125 96.777344 23.363281 C 97.421875 23.257812 98.394531 23.144531 98.628906 23.464844 C 98.941406 23.886719 98.582031 24.941406 98.480469 25.476562 C 98.097656 27.503906 97.632812 29.292969 97.378906 31.363281 C 97.710938 31.433594 98.015625 31.527344 98.378906 31.566406 C 99.230469 32.613281 100.335938 33.890625 101.335938 35.039062 C 101.679688 35.433594 102.136719 35.914062 102.285156 36.296875 C 102.570312 37.023438 102.5 38.097656 102.488281 39.011719 C 102.453125 41.117188 102.257812 43.21875 102.136719 45.351562 C 103 45.738281 105.804688 45.332031 105.839844 46.558594 C 105.859375 47.199219 104.945312 47.546875 104.339844 47.765625 C 103.601562 48.035156 102.929688 48.15625 102.1875 48.269531 C 101.960938 50.359375 101.710938 52.597656 101.585938 54.914062 C 101.546875 55.632812 101.59375 56.480469 101.386719 57.078125 C 101.167969 57.683594 100.347656 58.203125 99.882812 58.585938 C 99.316406 59.050781 98.75 59.433594 98.230469 59.894531 C 99.101562 61.855469 99.992188 63.582031 101.132812 65.429688 C 101.882812 66.640625 102.53125 68.144531 103.4375 69.453125 C 103.683594 69.808594 104.285156 70.324219 104.1875 70.761719 C 104.054688 71.375 100.894531 71.433594 100.082031 71.46875 C 98.382812 71.539062 97.03125 71.320312 95.625 71.164062 C 92.96875 70.871094 90.5 69.808594 88.363281 68.902344 C 83.777344 66.949219 79.882812 64.433594 77.199219 61 C 68.804688 60.5 60.339844 59.59375 51.15625 59.191406 C 46.964844 59.003906 42.347656 58.699219 37.988281 58.433594 C 35.941406 58.3125 33.613281 58.21875 31.476562 57.980469 C 29.222656 57.734375 27.28125 57.625 25.917969 56.625 C 23.6875 54.980469 25.164062 51.554688 26.820312 50.234375 C 27.933594 49.347656 29.328125 48.585938 31.175781 48.421875 C 31.9375 48.355469 32.902344 48.585938 33.679688 48.371094 C 34.066406 48.265625 34.292969 47.710938 34.882812 47.566406 C 35.261719 47.472656 35.664062 47.476562 36.183594 47.617188 C 36.234375 47.382812 36.363281 47.222656 36.535156 47.113281 C 36.199219 46.5 35.601562 46.125 35.234375 45.605469 C 34.449219 44.492188 33.953125 43.054688 33.480469 41.578125 C 33 40.070312 32.589844 38.300781 32.628906 36.699219 C 32.675781 34.757812 32.929688 33.324219 33.53125 31.816406 C 35.265625 27.453125 38.71875 24.382812 42.746094 22.257812 C 44.246094 21.464844 45.722656 20.875 47.503906 20.496094 C 49.316406 20.109375 51.277344 20.027344 53.363281 19.839844 C 55.484375 19.648438 57.976562 20.054688 59.671875 20.546875 C 64.890625 22.054688 68.816406 25.34375 71.488281 29.300781" fill-rule="evenodd"/></g></svg>